<mxfile host="app.diagrams.net" modified="2021-07-12T06:09:57.010Z" agent="5.0 (Windows NT 10.0; Win64; x64) AppleWebKit/537.36 (KHTML, like Gecko) Chrome/91.0.4472.124 Safari/537.36" etag="_BV165_PHWuJuPUecD0U" version="14.7.6" type="github">
  <diagram id="usMYCyNkIswgGn50jPDS" name="Page-1">
    <mxGraphModel dx="3716" dy="1122" grid="1" gridSize="10" guides="1" tooltips="1" connect="1" arrows="1" fold="1" page="1" pageScale="1" pageWidth="827" pageHeight="1169" math="0" shadow="0">
      <root>
        <mxCell id="0" />
        <mxCell id="1" parent="0" />
        <mxCell id="8fh4JgniRkXaSU9uOwnA-6" value="" style="edgeStyle=orthogonalEdgeStyle;rounded=0;orthogonalLoop=1;jettySize=auto;html=1;" edge="1" parent="1" source="8fh4JgniRkXaSU9uOwnA-2" target="8fh4JgniRkXaSU9uOwnA-3">
          <mxGeometry relative="1" as="geometry" />
        </mxCell>
        <mxCell id="8fh4JgniRkXaSU9uOwnA-2" value="分发给核心用户试探数据&lt;br&gt;（与冷启逻辑相同）" style="shape=step;perimeter=stepPerimeter;whiteSpace=wrap;html=1;fixedSize=1;" vertex="1" parent="1">
          <mxGeometry x="-1190" y="430" width="190" height="80" as="geometry" />
        </mxCell>
        <mxCell id="8fh4JgniRkXaSU9uOwnA-7" value="" style="edgeStyle=orthogonalEdgeStyle;rounded=0;orthogonalLoop=1;jettySize=auto;html=1;" edge="1" parent="1" source="8fh4JgniRkXaSU9uOwnA-3" target="8fh4JgniRkXaSU9uOwnA-4">
          <mxGeometry relative="1" as="geometry" />
        </mxCell>
        <mxCell id="8fh4JgniRkXaSU9uOwnA-3" value="熔断判定" style="shape=step;perimeter=stepPerimeter;whiteSpace=wrap;html=1;fixedSize=1;" vertex="1" parent="1">
          <mxGeometry x="-950" y="430" width="120" height="80" as="geometry" />
        </mxCell>
        <mxCell id="8fh4JgniRkXaSU9uOwnA-345" style="edgeStyle=none;rounded=0;orthogonalLoop=1;jettySize=auto;html=1;exitX=1;exitY=0.5;exitDx=0;exitDy=0;entryX=0;entryY=0.5;entryDx=0;entryDy=0;" edge="1" parent="1" source="8fh4JgniRkXaSU9uOwnA-4" target="8fh4JgniRkXaSU9uOwnA-326">
          <mxGeometry relative="1" as="geometry" />
        </mxCell>
        <mxCell id="8fh4JgniRkXaSU9uOwnA-346" style="edgeStyle=none;rounded=0;orthogonalLoop=1;jettySize=auto;html=1;exitX=1;exitY=0.5;exitDx=0;exitDy=0;entryX=0;entryY=0.5;entryDx=0;entryDy=0;" edge="1" parent="1" source="8fh4JgniRkXaSU9uOwnA-4" target="8fh4JgniRkXaSU9uOwnA-334">
          <mxGeometry relative="1" as="geometry" />
        </mxCell>
        <mxCell id="8fh4JgniRkXaSU9uOwnA-4" value="扩大分发" style="shape=step;perimeter=stepPerimeter;whiteSpace=wrap;html=1;fixedSize=1;fillColor=#f8cecc;strokeColor=#b85450;" vertex="1" parent="1">
          <mxGeometry x="-770" y="430" width="120" height="80" as="geometry" />
        </mxCell>
        <mxCell id="8fh4JgniRkXaSU9uOwnA-16" value="0.23" style="rounded=1;whiteSpace=wrap;html=1;" vertex="1" parent="1">
          <mxGeometry x="40" y="1260" width="120" height="60" as="geometry" />
        </mxCell>
        <mxCell id="8fh4JgniRkXaSU9uOwnA-17" value="0.22" style="rounded=1;whiteSpace=wrap;html=1;" vertex="1" parent="1">
          <mxGeometry x="40" y="1320" width="120" height="60" as="geometry" />
        </mxCell>
        <mxCell id="8fh4JgniRkXaSU9uOwnA-18" value="0.21" style="rounded=1;whiteSpace=wrap;html=1;" vertex="1" parent="1">
          <mxGeometry x="40" y="1380" width="120" height="60" as="geometry" />
        </mxCell>
        <mxCell id="8fh4JgniRkXaSU9uOwnA-19" value="0.20" style="rounded=1;whiteSpace=wrap;html=1;" vertex="1" parent="1">
          <mxGeometry x="40" y="1440" width="120" height="60" as="geometry" />
        </mxCell>
        <mxCell id="8fh4JgniRkXaSU9uOwnA-20" value="0.23" style="rounded=1;whiteSpace=wrap;html=1;" vertex="1" parent="1">
          <mxGeometry x="200" y="1260" width="120" height="60" as="geometry" />
        </mxCell>
        <mxCell id="8fh4JgniRkXaSU9uOwnA-21" value="0.22" style="rounded=1;whiteSpace=wrap;html=1;" vertex="1" parent="1">
          <mxGeometry x="200" y="1320" width="120" height="60" as="geometry" />
        </mxCell>
        <mxCell id="8fh4JgniRkXaSU9uOwnA-22" value="0.21" style="rounded=1;whiteSpace=wrap;html=1;" vertex="1" parent="1">
          <mxGeometry x="200" y="1380" width="120" height="60" as="geometry" />
        </mxCell>
        <mxCell id="8fh4JgniRkXaSU9uOwnA-23" value="0.20" style="rounded=1;whiteSpace=wrap;html=1;" vertex="1" parent="1">
          <mxGeometry x="200" y="1440" width="120" height="60" as="geometry" />
        </mxCell>
        <mxCell id="8fh4JgniRkXaSU9uOwnA-26" value="0.18" style="rounded=1;whiteSpace=wrap;html=1;fillColor=#f8cecc;strokeColor=#b85450;" vertex="1" parent="1">
          <mxGeometry x="40" y="1520" width="120" height="60" as="geometry" />
        </mxCell>
        <mxCell id="8fh4JgniRkXaSU9uOwnA-27" value="0.18" style="rounded=1;whiteSpace=wrap;html=1;fillColor=#f8cecc;strokeColor=#b85450;" vertex="1" parent="1">
          <mxGeometry x="200" y="1520" width="120" height="60" as="geometry" />
        </mxCell>
        <mxCell id="8fh4JgniRkXaSU9uOwnA-28" value="被替换" style="rounded=1;whiteSpace=wrap;html=1;fillColor=#76608a;strokeColor=#432D57;fontColor=#ffffff;" vertex="1" parent="1">
          <mxGeometry x="490" y="1260" width="120" height="60" as="geometry" />
        </mxCell>
        <mxCell id="8fh4JgniRkXaSU9uOwnA-29" value="有余额，当次被投放" style="rounded=1;whiteSpace=wrap;html=1;fillColor=#d5e8d4;strokeColor=#82b366;" vertex="1" parent="1">
          <mxGeometry x="640" y="1260" width="120" height="60" as="geometry" />
        </mxCell>
        <mxCell id="8fh4JgniRkXaSU9uOwnA-30" value="无余额，未被投放" style="rounded=1;whiteSpace=wrap;html=1;fillColor=#fad9d5;strokeColor=#ae4132;" vertex="1" parent="1">
          <mxGeometry x="490" y="1340" width="120" height="60" as="geometry" />
        </mxCell>
        <mxCell id="8fh4JgniRkXaSU9uOwnA-31" value="有余额，未被投放" style="rounded=1;whiteSpace=wrap;html=1;fillColor=#fff2cc;strokeColor=#d6b656;" vertex="1" parent="1">
          <mxGeometry x="640" y="1340" width="120" height="60" as="geometry" />
        </mxCell>
        <mxCell id="8fh4JgniRkXaSU9uOwnA-32" value="0.13" style="rounded=1;whiteSpace=wrap;html=1;" vertex="1" parent="1">
          <mxGeometry x="-270" y="1260" width="120" height="60" as="geometry" />
        </mxCell>
        <mxCell id="8fh4JgniRkXaSU9uOwnA-33" value="0.12" style="rounded=1;whiteSpace=wrap;html=1;" vertex="1" parent="1">
          <mxGeometry x="-270" y="1320" width="120" height="60" as="geometry" />
        </mxCell>
        <mxCell id="8fh4JgniRkXaSU9uOwnA-34" value="0.11" style="rounded=1;whiteSpace=wrap;html=1;" vertex="1" parent="1">
          <mxGeometry x="-270" y="1380" width="120" height="60" as="geometry" />
        </mxCell>
        <mxCell id="8fh4JgniRkXaSU9uOwnA-35" value="0.10" style="rounded=1;whiteSpace=wrap;html=1;fillColor=#76608a;strokeColor=#432D57;fontColor=#ffffff;" vertex="1" parent="1">
          <mxGeometry x="-270" y="1440" width="120" height="60" as="geometry" />
        </mxCell>
        <mxCell id="8fh4JgniRkXaSU9uOwnA-36" value="0.13" style="rounded=1;whiteSpace=wrap;html=1;" vertex="1" parent="1">
          <mxGeometry x="-110" y="1260" width="120" height="60" as="geometry" />
        </mxCell>
        <mxCell id="8fh4JgniRkXaSU9uOwnA-37" value="0.12" style="rounded=1;whiteSpace=wrap;html=1;" vertex="1" parent="1">
          <mxGeometry x="-110" y="1320" width="120" height="60" as="geometry" />
        </mxCell>
        <mxCell id="8fh4JgniRkXaSU9uOwnA-38" value="0.11" style="rounded=1;whiteSpace=wrap;html=1;" vertex="1" parent="1">
          <mxGeometry x="-110" y="1380" width="120" height="60" as="geometry" />
        </mxCell>
        <mxCell id="8fh4JgniRkXaSU9uOwnA-39" value="0.10" style="rounded=1;whiteSpace=wrap;html=1;fillColor=#76608a;strokeColor=#432D57;fontColor=#ffffff;" vertex="1" parent="1">
          <mxGeometry x="-110" y="1440" width="120" height="60" as="geometry" />
        </mxCell>
        <mxCell id="8fh4JgniRkXaSU9uOwnA-40" value="0.09" style="rounded=1;whiteSpace=wrap;html=1;fillColor=#d5e8d4;strokeColor=#82b366;" vertex="1" parent="1">
          <mxGeometry x="-270" y="1520" width="120" height="60" as="geometry" />
        </mxCell>
        <mxCell id="8fh4JgniRkXaSU9uOwnA-41" value="0.09" style="rounded=1;whiteSpace=wrap;html=1;fillColor=#d5e8d4;strokeColor=#82b366;" vertex="1" parent="1">
          <mxGeometry x="-110" y="1520" width="120" height="60" as="geometry" />
        </mxCell>
        <mxCell id="8fh4JgniRkXaSU9uOwnA-77" value="投放预估分收益：0..09 + 0.09 = 0.18&lt;br&gt;系统预估分整体损失 0.01 + 0.01 = 0.02" style="rounded=0;whiteSpace=wrap;html=1;" vertex="1" parent="1">
          <mxGeometry x="490" y="1450" width="270" height="80" as="geometry" />
        </mxCell>
        <mxCell id="8fh4JgniRkXaSU9uOwnA-103" value="0.13" style="rounded=1;whiteSpace=wrap;html=1;" vertex="1" parent="1">
          <mxGeometry x="-280" y="3180" width="120" height="60" as="geometry" />
        </mxCell>
        <mxCell id="8fh4JgniRkXaSU9uOwnA-104" value="0.12" style="rounded=1;whiteSpace=wrap;html=1;" vertex="1" parent="1">
          <mxGeometry x="-280" y="3240" width="120" height="60" as="geometry" />
        </mxCell>
        <mxCell id="8fh4JgniRkXaSU9uOwnA-105" value="0.11" style="rounded=1;whiteSpace=wrap;html=1;" vertex="1" parent="1">
          <mxGeometry x="-280" y="3300" width="120" height="60" as="geometry" />
        </mxCell>
        <mxCell id="8fh4JgniRkXaSU9uOwnA-106" value="0.10" style="rounded=1;whiteSpace=wrap;html=1;" vertex="1" parent="1">
          <mxGeometry x="-280" y="3360" width="120" height="60" as="geometry" />
        </mxCell>
        <mxCell id="8fh4JgniRkXaSU9uOwnA-107" value="&lt;font style=&quot;font-size: 14px&quot;&gt;&lt;b&gt;请求是啥样也不知道&lt;/b&gt;&lt;/font&gt;" style="rounded=1;whiteSpace=wrap;html=1;" vertex="1" parent="1">
          <mxGeometry x="-120" y="3180" width="120" height="60" as="geometry" />
        </mxCell>
        <mxCell id="8fh4JgniRkXaSU9uOwnA-108" value="" style="rounded=1;whiteSpace=wrap;html=1;" vertex="1" parent="1">
          <mxGeometry x="-120" y="3240" width="120" height="60" as="geometry" />
        </mxCell>
        <mxCell id="8fh4JgniRkXaSU9uOwnA-109" value="" style="rounded=1;whiteSpace=wrap;html=1;" vertex="1" parent="1">
          <mxGeometry x="-120" y="3300" width="120" height="60" as="geometry" />
        </mxCell>
        <mxCell id="8fh4JgniRkXaSU9uOwnA-110" value="" style="rounded=1;whiteSpace=wrap;html=1;" vertex="1" parent="1">
          <mxGeometry x="-120" y="3360" width="120" height="60" as="geometry" />
        </mxCell>
        <mxCell id="8fh4JgniRkXaSU9uOwnA-111" value="0.09" style="rounded=1;whiteSpace=wrap;html=1;fillColor=#fff2cc;strokeColor=#d6b656;" vertex="1" parent="1">
          <mxGeometry x="-280" y="3440" width="120" height="60" as="geometry" />
        </mxCell>
        <mxCell id="8fh4JgniRkXaSU9uOwnA-116" value="&lt;span style=&quot;font-size: 18px&quot;&gt;理想场景设定+&lt;br&gt;策略实现方式A&lt;/span&gt;" style="rounded=1;whiteSpace=wrap;html=1;fillColor=#fff2cc;strokeColor=#d6b656;gradientColor=#ffd966;" vertex="1" parent="1">
          <mxGeometry x="-550" y="1260" width="150" height="180" as="geometry" />
        </mxCell>
        <mxCell id="8fh4JgniRkXaSU9uOwnA-121" value="" style="edgeStyle=orthogonalEdgeStyle;rounded=0;orthogonalLoop=1;jettySize=auto;html=1;" edge="1" parent="1" source="8fh4JgniRkXaSU9uOwnA-119" target="8fh4JgniRkXaSU9uOwnA-120">
          <mxGeometry relative="1" as="geometry" />
        </mxCell>
        <mxCell id="8fh4JgniRkXaSU9uOwnA-119" value="请求1" style="shape=step;perimeter=stepPerimeter;whiteSpace=wrap;html=1;fixedSize=1;gradientColor=#7ea6e0;fillColor=#dae8fc;strokeColor=#6c8ebf;" vertex="1" parent="1">
          <mxGeometry x="-270" y="1140" width="120" height="80" as="geometry" />
        </mxCell>
        <mxCell id="8fh4JgniRkXaSU9uOwnA-123" value="" style="edgeStyle=orthogonalEdgeStyle;rounded=0;orthogonalLoop=1;jettySize=auto;html=1;" edge="1" parent="1" source="8fh4JgniRkXaSU9uOwnA-120">
          <mxGeometry relative="1" as="geometry">
            <mxPoint x="70" y="1180" as="targetPoint" />
          </mxGeometry>
        </mxCell>
        <mxCell id="8fh4JgniRkXaSU9uOwnA-120" value="请求2" style="shape=step;perimeter=stepPerimeter;whiteSpace=wrap;html=1;fixedSize=1;gradientColor=#7ea6e0;fillColor=#dae8fc;strokeColor=#6c8ebf;" vertex="1" parent="1">
          <mxGeometry x="-110" y="1140" width="120" height="80" as="geometry" />
        </mxCell>
        <mxCell id="8fh4JgniRkXaSU9uOwnA-129" value="" style="edgeStyle=orthogonalEdgeStyle;rounded=0;orthogonalLoop=1;jettySize=auto;html=1;" edge="1" parent="1" source="8fh4JgniRkXaSU9uOwnA-126" target="8fh4JgniRkXaSU9uOwnA-128">
          <mxGeometry relative="1" as="geometry" />
        </mxCell>
        <mxCell id="8fh4JgniRkXaSU9uOwnA-126" value="请求3" style="shape=step;perimeter=stepPerimeter;whiteSpace=wrap;html=1;fixedSize=1;gradientColor=#7ea6e0;fillColor=#dae8fc;strokeColor=#6c8ebf;" vertex="1" parent="1">
          <mxGeometry x="50" y="1140" width="120" height="80" as="geometry" />
        </mxCell>
        <mxCell id="8fh4JgniRkXaSU9uOwnA-128" value="请求4" style="shape=step;perimeter=stepPerimeter;whiteSpace=wrap;html=1;fixedSize=1;gradientColor=#7ea6e0;fillColor=#dae8fc;strokeColor=#6c8ebf;" vertex="1" parent="1">
          <mxGeometry x="200" y="1140" width="120" height="80" as="geometry" />
        </mxCell>
        <mxCell id="8fh4JgniRkXaSU9uOwnA-141" value="&lt;span style=&quot;font-size: 18px&quot;&gt;真实情况是&lt;/span&gt;" style="rounded=1;whiteSpace=wrap;html=1;fillColor=#fff2cc;strokeColor=#d6b656;gradientColor=#ffd966;" vertex="1" parent="1">
          <mxGeometry x="-560" y="3180" width="150" height="180" as="geometry" />
        </mxCell>
        <mxCell id="8fh4JgniRkXaSU9uOwnA-143" value="" style="edgeStyle=orthogonalEdgeStyle;rounded=0;orthogonalLoop=1;jettySize=auto;html=1;" edge="1" parent="1" source="8fh4JgniRkXaSU9uOwnA-144" target="8fh4JgniRkXaSU9uOwnA-146">
          <mxGeometry relative="1" as="geometry" />
        </mxCell>
        <mxCell id="8fh4JgniRkXaSU9uOwnA-144" value="请求1" style="shape=step;perimeter=stepPerimeter;whiteSpace=wrap;html=1;fixedSize=1;gradientColor=#7ea6e0;fillColor=#dae8fc;strokeColor=#6c8ebf;" vertex="1" parent="1">
          <mxGeometry x="-280" y="3050" width="120" height="80" as="geometry" />
        </mxCell>
        <mxCell id="8fh4JgniRkXaSU9uOwnA-146" value="&lt;b&gt;&lt;font style=&quot;font-size: 14px&quot;&gt;不知道有多少请求&lt;/font&gt;&lt;/b&gt;" style="shape=step;perimeter=stepPerimeter;whiteSpace=wrap;html=1;fixedSize=1;gradientColor=#7ea6e0;fillColor=#dae8fc;strokeColor=#6c8ebf;" vertex="1" parent="1">
          <mxGeometry x="-120" y="3050" width="160" height="80" as="geometry" />
        </mxCell>
        <mxCell id="8fh4JgniRkXaSU9uOwnA-163" value="0.28" style="rounded=1;whiteSpace=wrap;html=1;" vertex="1" parent="1">
          <mxGeometry x="30" y="1830" width="120" height="60" as="geometry" />
        </mxCell>
        <mxCell id="8fh4JgniRkXaSU9uOwnA-164" value="0.27" style="rounded=1;whiteSpace=wrap;html=1;" vertex="1" parent="1">
          <mxGeometry x="30" y="1890" width="120" height="60" as="geometry" />
        </mxCell>
        <mxCell id="8fh4JgniRkXaSU9uOwnA-165" value="0.26" style="rounded=1;whiteSpace=wrap;html=1;" vertex="1" parent="1">
          <mxGeometry x="30" y="1950" width="120" height="60" as="geometry" />
        </mxCell>
        <mxCell id="8fh4JgniRkXaSU9uOwnA-166" value="0.25" style="rounded=1;whiteSpace=wrap;html=1;" vertex="1" parent="1">
          <mxGeometry x="30" y="2010" width="120" height="60" as="geometry" />
        </mxCell>
        <mxCell id="8fh4JgniRkXaSU9uOwnA-167" value="0.28" style="rounded=1;whiteSpace=wrap;html=1;" vertex="1" parent="1">
          <mxGeometry x="190" y="1830" width="120" height="60" as="geometry" />
        </mxCell>
        <mxCell id="8fh4JgniRkXaSU9uOwnA-168" value="0.27" style="rounded=1;whiteSpace=wrap;html=1;" vertex="1" parent="1">
          <mxGeometry x="190" y="1890" width="120" height="60" as="geometry" />
        </mxCell>
        <mxCell id="8fh4JgniRkXaSU9uOwnA-169" value="0.26" style="rounded=1;whiteSpace=wrap;html=1;" vertex="1" parent="1">
          <mxGeometry x="190" y="1950" width="120" height="60" as="geometry" />
        </mxCell>
        <mxCell id="8fh4JgniRkXaSU9uOwnA-170" value="0.25" style="rounded=1;whiteSpace=wrap;html=1;" vertex="1" parent="1">
          <mxGeometry x="190" y="2010" width="120" height="60" as="geometry" />
        </mxCell>
        <mxCell id="8fh4JgniRkXaSU9uOwnA-179" value="0.18" style="rounded=1;whiteSpace=wrap;html=1;" vertex="1" parent="1">
          <mxGeometry x="-280" y="1830" width="120" height="60" as="geometry" />
        </mxCell>
        <mxCell id="8fh4JgniRkXaSU9uOwnA-180" value="0.17" style="rounded=1;whiteSpace=wrap;html=1;" vertex="1" parent="1">
          <mxGeometry x="-280" y="1890" width="120" height="60" as="geometry" />
        </mxCell>
        <mxCell id="8fh4JgniRkXaSU9uOwnA-181" value="0.16" style="rounded=1;whiteSpace=wrap;html=1;" vertex="1" parent="1">
          <mxGeometry x="-280" y="1950" width="120" height="60" as="geometry" />
        </mxCell>
        <mxCell id="8fh4JgniRkXaSU9uOwnA-182" value="0.15" style="rounded=1;whiteSpace=wrap;html=1;fillColor=#76608a;strokeColor=#432D57;fontColor=#ffffff;" vertex="1" parent="1">
          <mxGeometry x="-280" y="2010" width="120" height="60" as="geometry" />
        </mxCell>
        <mxCell id="8fh4JgniRkXaSU9uOwnA-183" value="0.18" style="rounded=1;whiteSpace=wrap;html=1;" vertex="1" parent="1">
          <mxGeometry x="-120" y="1830" width="120" height="60" as="geometry" />
        </mxCell>
        <mxCell id="8fh4JgniRkXaSU9uOwnA-184" value="0.17" style="rounded=1;whiteSpace=wrap;html=1;" vertex="1" parent="1">
          <mxGeometry x="-120" y="1890" width="120" height="60" as="geometry" />
        </mxCell>
        <mxCell id="8fh4JgniRkXaSU9uOwnA-185" value="0.16" style="rounded=1;whiteSpace=wrap;html=1;" vertex="1" parent="1">
          <mxGeometry x="-120" y="1950" width="120" height="60" as="geometry" />
        </mxCell>
        <mxCell id="8fh4JgniRkXaSU9uOwnA-186" value="0.15" style="rounded=1;whiteSpace=wrap;html=1;fillColor=#76608a;strokeColor=#432D57;fontColor=#ffffff;" vertex="1" parent="1">
          <mxGeometry x="-120" y="2010" width="120" height="60" as="geometry" />
        </mxCell>
        <mxCell id="8fh4JgniRkXaSU9uOwnA-187" value="任务B：0.13" style="rounded=1;whiteSpace=wrap;html=1;fillColor=#d5e8d4;strokeColor=#82b366;" vertex="1" parent="1">
          <mxGeometry x="-280" y="2090" width="120" height="60" as="geometry" />
        </mxCell>
        <mxCell id="8fh4JgniRkXaSU9uOwnA-188" value="任务B：0.13" style="rounded=1;whiteSpace=wrap;html=1;fillColor=#d5e8d4;strokeColor=#82b366;" vertex="1" parent="1">
          <mxGeometry x="-120" y="2090" width="120" height="60" as="geometry" />
        </mxCell>
        <mxCell id="8fh4JgniRkXaSU9uOwnA-189" value="投放预估分收益：0.15*2 + 0.13*2 = 0.56&lt;br&gt;系统整体预估分整体损失 0.02*2 + 0.10*2 = 0.24" style="rounded=0;whiteSpace=wrap;html=1;" vertex="1" parent="1">
          <mxGeometry x="480" y="2020" width="270" height="80" as="geometry" />
        </mxCell>
        <mxCell id="8fh4JgniRkXaSU9uOwnA-190" value="&lt;span style=&quot;font-size: 18px&quot;&gt;理想场景设定+&lt;br&gt;策略实现方式A&lt;/span&gt;" style="rounded=1;whiteSpace=wrap;html=1;fillColor=#fff2cc;strokeColor=#d6b656;gradientColor=#ffd966;" vertex="1" parent="1">
          <mxGeometry x="-550" y="1860" width="150" height="180" as="geometry" />
        </mxCell>
        <mxCell id="8fh4JgniRkXaSU9uOwnA-191" value="" style="edgeStyle=orthogonalEdgeStyle;rounded=0;orthogonalLoop=1;jettySize=auto;html=1;" edge="1" parent="1" source="8fh4JgniRkXaSU9uOwnA-192" target="8fh4JgniRkXaSU9uOwnA-194">
          <mxGeometry relative="1" as="geometry" />
        </mxCell>
        <mxCell id="8fh4JgniRkXaSU9uOwnA-192" value="请求1" style="shape=step;perimeter=stepPerimeter;whiteSpace=wrap;html=1;fixedSize=1;gradientColor=#7ea6e0;fillColor=#dae8fc;strokeColor=#6c8ebf;" vertex="1" parent="1">
          <mxGeometry x="-280" y="1710" width="120" height="80" as="geometry" />
        </mxCell>
        <mxCell id="8fh4JgniRkXaSU9uOwnA-194" value="请求2" style="shape=step;perimeter=stepPerimeter;whiteSpace=wrap;html=1;fixedSize=1;gradientColor=#7ea6e0;fillColor=#dae8fc;strokeColor=#6c8ebf;" vertex="1" parent="1">
          <mxGeometry x="-120" y="1710" width="120" height="80" as="geometry" />
        </mxCell>
        <mxCell id="8fh4JgniRkXaSU9uOwnA-197" value="" style="edgeStyle=orthogonalEdgeStyle;rounded=0;orthogonalLoop=1;jettySize=auto;html=1;" edge="1" parent="1" target="8fh4JgniRkXaSU9uOwnA-200">
          <mxGeometry relative="1" as="geometry">
            <mxPoint y="1750" as="sourcePoint" />
          </mxGeometry>
        </mxCell>
        <mxCell id="8fh4JgniRkXaSU9uOwnA-199" value="" style="edgeStyle=orthogonalEdgeStyle;rounded=0;orthogonalLoop=1;jettySize=auto;html=1;" edge="1" parent="1" source="8fh4JgniRkXaSU9uOwnA-200" target="8fh4JgniRkXaSU9uOwnA-201">
          <mxGeometry relative="1" as="geometry" />
        </mxCell>
        <mxCell id="8fh4JgniRkXaSU9uOwnA-200" value="请求3" style="shape=step;perimeter=stepPerimeter;whiteSpace=wrap;html=1;fixedSize=1;gradientColor=#7ea6e0;fillColor=#dae8fc;strokeColor=#6c8ebf;" vertex="1" parent="1">
          <mxGeometry x="40" y="1710" width="120" height="80" as="geometry" />
        </mxCell>
        <mxCell id="8fh4JgniRkXaSU9uOwnA-201" value="请求4" style="shape=step;perimeter=stepPerimeter;whiteSpace=wrap;html=1;fixedSize=1;gradientColor=#7ea6e0;fillColor=#dae8fc;strokeColor=#6c8ebf;" vertex="1" parent="1">
          <mxGeometry x="190" y="1710" width="120" height="80" as="geometry" />
        </mxCell>
        <mxCell id="8fh4JgniRkXaSU9uOwnA-202" value="任务A：0.11" style="rounded=1;whiteSpace=wrap;html=1;fillColor=#fff2cc;strokeColor=#d6b656;" vertex="1" parent="1">
          <mxGeometry x="-280" y="2150" width="120" height="60" as="geometry" />
        </mxCell>
        <mxCell id="8fh4JgniRkXaSU9uOwnA-203" value="任务A：0.11" style="rounded=1;whiteSpace=wrap;html=1;fillColor=#fff2cc;strokeColor=#d6b656;" vertex="1" parent="1">
          <mxGeometry x="-120" y="2150" width="120" height="60" as="geometry" />
        </mxCell>
        <mxCell id="8fh4JgniRkXaSU9uOwnA-208" value="任务B：0.24" style="rounded=1;whiteSpace=wrap;html=1;fillColor=#f8cecc;strokeColor=#b85450;" vertex="1" parent="1">
          <mxGeometry x="30" y="2090" width="120" height="60" as="geometry" />
        </mxCell>
        <mxCell id="8fh4JgniRkXaSU9uOwnA-209" value="任务B：0.24" style="rounded=1;whiteSpace=wrap;html=1;fillColor=#f8cecc;strokeColor=#b85450;" vertex="1" parent="1">
          <mxGeometry x="190" y="2090" width="120" height="60" as="geometry" />
        </mxCell>
        <mxCell id="8fh4JgniRkXaSU9uOwnA-210" value="任务A：0.15" style="rounded=1;whiteSpace=wrap;html=1;fillColor=#d5e8d4;strokeColor=#82b366;" vertex="1" parent="1">
          <mxGeometry x="30" y="2150" width="120" height="60" as="geometry" />
        </mxCell>
        <mxCell id="8fh4JgniRkXaSU9uOwnA-211" value="任务A：0.15" style="rounded=1;whiteSpace=wrap;html=1;fillColor=#d5e8d4;strokeColor=#82b366;" vertex="1" parent="1">
          <mxGeometry x="190" y="2150" width="120" height="60" as="geometry" />
        </mxCell>
        <mxCell id="8fh4JgniRkXaSU9uOwnA-212" value="被替换" style="rounded=1;whiteSpace=wrap;html=1;fillColor=#76608a;strokeColor=#432D57;fontColor=#ffffff;" vertex="1" parent="1">
          <mxGeometry x="480" y="1830" width="120" height="60" as="geometry" />
        </mxCell>
        <mxCell id="8fh4JgniRkXaSU9uOwnA-213" value="有余额，当次被投放" style="rounded=1;whiteSpace=wrap;html=1;fillColor=#d5e8d4;strokeColor=#82b366;" vertex="1" parent="1">
          <mxGeometry x="630" y="1830" width="120" height="60" as="geometry" />
        </mxCell>
        <mxCell id="8fh4JgniRkXaSU9uOwnA-214" value="无余额，未被投放" style="rounded=1;whiteSpace=wrap;html=1;fillColor=#fad9d5;strokeColor=#ae4132;" vertex="1" parent="1">
          <mxGeometry x="480" y="1910" width="120" height="60" as="geometry" />
        </mxCell>
        <mxCell id="8fh4JgniRkXaSU9uOwnA-215" value="有余额，未被投放" style="rounded=1;whiteSpace=wrap;html=1;fillColor=#fff2cc;strokeColor=#d6b656;" vertex="1" parent="1">
          <mxGeometry x="630" y="1910" width="120" height="60" as="geometry" />
        </mxCell>
        <mxCell id="8fh4JgniRkXaSU9uOwnA-220" value="0.28" style="rounded=1;whiteSpace=wrap;html=1;" vertex="1" parent="1">
          <mxGeometry x="30" y="2510" width="120" height="60" as="geometry" />
        </mxCell>
        <mxCell id="8fh4JgniRkXaSU9uOwnA-221" value="0.27" style="rounded=1;whiteSpace=wrap;html=1;" vertex="1" parent="1">
          <mxGeometry x="30" y="2570" width="120" height="60" as="geometry" />
        </mxCell>
        <mxCell id="8fh4JgniRkXaSU9uOwnA-222" value="0.26" style="rounded=1;whiteSpace=wrap;html=1;" vertex="1" parent="1">
          <mxGeometry x="30" y="2630" width="120" height="60" as="geometry" />
        </mxCell>
        <mxCell id="8fh4JgniRkXaSU9uOwnA-223" value="0.25" style="rounded=1;whiteSpace=wrap;html=1;" vertex="1" parent="1">
          <mxGeometry x="30" y="2690" width="120" height="60" as="geometry" />
        </mxCell>
        <mxCell id="8fh4JgniRkXaSU9uOwnA-224" value="0.28" style="rounded=1;whiteSpace=wrap;html=1;" vertex="1" parent="1">
          <mxGeometry x="190" y="2510" width="120" height="60" as="geometry" />
        </mxCell>
        <mxCell id="8fh4JgniRkXaSU9uOwnA-225" value="0.27" style="rounded=1;whiteSpace=wrap;html=1;" vertex="1" parent="1">
          <mxGeometry x="190" y="2570" width="120" height="60" as="geometry" />
        </mxCell>
        <mxCell id="8fh4JgniRkXaSU9uOwnA-226" value="0.26" style="rounded=1;whiteSpace=wrap;html=1;" vertex="1" parent="1">
          <mxGeometry x="190" y="2630" width="120" height="60" as="geometry" />
        </mxCell>
        <mxCell id="8fh4JgniRkXaSU9uOwnA-227" value="0.25" style="rounded=1;whiteSpace=wrap;html=1;" vertex="1" parent="1">
          <mxGeometry x="190" y="2690" width="120" height="60" as="geometry" />
        </mxCell>
        <mxCell id="8fh4JgniRkXaSU9uOwnA-228" value="0.18" style="rounded=1;whiteSpace=wrap;html=1;" vertex="1" parent="1">
          <mxGeometry x="-280" y="2510" width="120" height="60" as="geometry" />
        </mxCell>
        <mxCell id="8fh4JgniRkXaSU9uOwnA-229" value="0.17" style="rounded=1;whiteSpace=wrap;html=1;" vertex="1" parent="1">
          <mxGeometry x="-280" y="2570" width="120" height="60" as="geometry" />
        </mxCell>
        <mxCell id="8fh4JgniRkXaSU9uOwnA-230" value="0.16" style="rounded=1;whiteSpace=wrap;html=1;" vertex="1" parent="1">
          <mxGeometry x="-280" y="2630" width="120" height="60" as="geometry" />
        </mxCell>
        <mxCell id="8fh4JgniRkXaSU9uOwnA-231" value="0.15" style="rounded=1;whiteSpace=wrap;html=1;fillColor=#76608a;strokeColor=#432D57;fontColor=#ffffff;" vertex="1" parent="1">
          <mxGeometry x="-280" y="2690" width="120" height="60" as="geometry" />
        </mxCell>
        <mxCell id="8fh4JgniRkXaSU9uOwnA-232" value="0.18" style="rounded=1;whiteSpace=wrap;html=1;" vertex="1" parent="1">
          <mxGeometry x="-120" y="2510" width="120" height="60" as="geometry" />
        </mxCell>
        <mxCell id="8fh4JgniRkXaSU9uOwnA-233" value="0.17" style="rounded=1;whiteSpace=wrap;html=1;" vertex="1" parent="1">
          <mxGeometry x="-120" y="2570" width="120" height="60" as="geometry" />
        </mxCell>
        <mxCell id="8fh4JgniRkXaSU9uOwnA-234" value="0.16" style="rounded=1;whiteSpace=wrap;html=1;" vertex="1" parent="1">
          <mxGeometry x="-120" y="2630" width="120" height="60" as="geometry" />
        </mxCell>
        <mxCell id="8fh4JgniRkXaSU9uOwnA-235" value="0.15" style="rounded=1;whiteSpace=wrap;html=1;fillColor=#76608a;strokeColor=#432D57;fontColor=#ffffff;" vertex="1" parent="1">
          <mxGeometry x="-120" y="2690" width="120" height="60" as="geometry" />
        </mxCell>
        <mxCell id="8fh4JgniRkXaSU9uOwnA-236" value="任务B：0.13&lt;br&gt;理想投放：0.25&lt;br&gt;投放损失：0.12" style="rounded=1;whiteSpace=wrap;html=1;fillColor=#fff2cc;strokeColor=#d6b656;" vertex="1" parent="1">
          <mxGeometry x="-280" y="2770" width="120" height="60" as="geometry" />
        </mxCell>
        <mxCell id="8fh4JgniRkXaSU9uOwnA-237" value="任务B：0.13&lt;br&gt;理想投放：0.25&lt;br&gt;损失：0.12" style="rounded=1;whiteSpace=wrap;html=1;fillColor=#fff2cc;strokeColor=#d6b656;" vertex="1" parent="1">
          <mxGeometry x="-120" y="2770" width="120" height="60" as="geometry" />
        </mxCell>
        <mxCell id="8fh4JgniRkXaSU9uOwnA-238" value="投放预估分收益：0.11*2 + 0.24*2 = 0.7&lt;br&gt;系统预估分整体损失 0.04*2 + 0.01*2 = 0.10" style="rounded=0;whiteSpace=wrap;html=1;" vertex="1" parent="1">
          <mxGeometry x="450" y="2700" width="270" height="80" as="geometry" />
        </mxCell>
        <mxCell id="8fh4JgniRkXaSU9uOwnA-239" value="&lt;span style=&quot;font-size: 18px&quot;&gt;理想场景设定+&lt;br&gt;策略实现方式A&lt;/span&gt;" style="rounded=1;whiteSpace=wrap;html=1;fillColor=#fff2cc;strokeColor=#d6b656;gradientColor=#ffd966;" vertex="1" parent="1">
          <mxGeometry x="-560" y="2510" width="150" height="180" as="geometry" />
        </mxCell>
        <mxCell id="8fh4JgniRkXaSU9uOwnA-240" value="" style="edgeStyle=orthogonalEdgeStyle;rounded=0;orthogonalLoop=1;jettySize=auto;html=1;" edge="1" parent="1" source="8fh4JgniRkXaSU9uOwnA-241" target="8fh4JgniRkXaSU9uOwnA-242">
          <mxGeometry relative="1" as="geometry" />
        </mxCell>
        <mxCell id="8fh4JgniRkXaSU9uOwnA-241" value="请求1" style="shape=step;perimeter=stepPerimeter;whiteSpace=wrap;html=1;fixedSize=1;gradientColor=#7ea6e0;fillColor=#dae8fc;strokeColor=#6c8ebf;" vertex="1" parent="1">
          <mxGeometry x="-280" y="2390" width="120" height="80" as="geometry" />
        </mxCell>
        <mxCell id="8fh4JgniRkXaSU9uOwnA-242" value="请求2" style="shape=step;perimeter=stepPerimeter;whiteSpace=wrap;html=1;fixedSize=1;gradientColor=#7ea6e0;fillColor=#dae8fc;strokeColor=#6c8ebf;" vertex="1" parent="1">
          <mxGeometry x="-120" y="2390" width="120" height="80" as="geometry" />
        </mxCell>
        <mxCell id="8fh4JgniRkXaSU9uOwnA-243" value="" style="edgeStyle=orthogonalEdgeStyle;rounded=0;orthogonalLoop=1;jettySize=auto;html=1;" edge="1" parent="1" target="8fh4JgniRkXaSU9uOwnA-245">
          <mxGeometry relative="1" as="geometry">
            <mxPoint y="2430" as="sourcePoint" />
          </mxGeometry>
        </mxCell>
        <mxCell id="8fh4JgniRkXaSU9uOwnA-244" value="" style="edgeStyle=orthogonalEdgeStyle;rounded=0;orthogonalLoop=1;jettySize=auto;html=1;" edge="1" parent="1" source="8fh4JgniRkXaSU9uOwnA-245" target="8fh4JgniRkXaSU9uOwnA-246">
          <mxGeometry relative="1" as="geometry" />
        </mxCell>
        <mxCell id="8fh4JgniRkXaSU9uOwnA-245" value="请求3" style="shape=step;perimeter=stepPerimeter;whiteSpace=wrap;html=1;fixedSize=1;gradientColor=#7ea6e0;fillColor=#dae8fc;strokeColor=#6c8ebf;" vertex="1" parent="1">
          <mxGeometry x="40" y="2390" width="120" height="80" as="geometry" />
        </mxCell>
        <mxCell id="8fh4JgniRkXaSU9uOwnA-246" value="请求4" style="shape=step;perimeter=stepPerimeter;whiteSpace=wrap;html=1;fixedSize=1;gradientColor=#7ea6e0;fillColor=#dae8fc;strokeColor=#6c8ebf;" vertex="1" parent="1">
          <mxGeometry x="190" y="2390" width="120" height="80" as="geometry" />
        </mxCell>
        <mxCell id="8fh4JgniRkXaSU9uOwnA-247" value="任务A：0.11&lt;br&gt;理想投放：0.17&lt;br&gt;当前投放损失：0.06" style="rounded=1;whiteSpace=wrap;html=1;fillColor=#d5e8d4;strokeColor=#82b366;" vertex="1" parent="1">
          <mxGeometry x="-280" y="2830" width="120" height="60" as="geometry" />
        </mxCell>
        <mxCell id="8fh4JgniRkXaSU9uOwnA-248" value="任务A：0.11&lt;br&gt;理想投放：0.17&lt;br&gt;当前投放损失：0.06" style="rounded=1;whiteSpace=wrap;html=1;fillColor=#d5e8d4;strokeColor=#82b366;" vertex="1" parent="1">
          <mxGeometry x="-120" y="2830" width="120" height="60" as="geometry" />
        </mxCell>
        <mxCell id="8fh4JgniRkXaSU9uOwnA-249" value="任务B：0.24&lt;br&gt;理想投放：0.25&lt;br&gt;损失：0.1" style="rounded=1;whiteSpace=wrap;html=1;fillColor=#d5e8d4;strokeColor=#82b366;" vertex="1" parent="1">
          <mxGeometry x="30" y="2770" width="120" height="60" as="geometry" />
        </mxCell>
        <mxCell id="8fh4JgniRkXaSU9uOwnA-250" value="任务B：0.24&lt;br&gt;理想投放：0.25&lt;br&gt;损失：0.1" style="rounded=1;whiteSpace=wrap;html=1;fillColor=#d5e8d4;strokeColor=#82b366;" vertex="1" parent="1">
          <mxGeometry x="190" y="2770" width="120" height="60" as="geometry" />
        </mxCell>
        <mxCell id="8fh4JgniRkXaSU9uOwnA-251" value="任务A：0.15&lt;br&gt;理想投放：0.17&lt;br&gt;投放损失：0.02" style="rounded=1;whiteSpace=wrap;html=1;fillColor=#f8cecc;strokeColor=#b85450;" vertex="1" parent="1">
          <mxGeometry x="30" y="2830" width="120" height="60" as="geometry" />
        </mxCell>
        <mxCell id="8fh4JgniRkXaSU9uOwnA-252" value="任务A：0.15&lt;br&gt;理想投放：0.17&lt;br&gt;投放损失：0" style="rounded=1;whiteSpace=wrap;html=1;fillColor=#f8cecc;strokeColor=#b85450;" vertex="1" parent="1">
          <mxGeometry x="190" y="2830" width="120" height="60" as="geometry" />
        </mxCell>
        <mxCell id="8fh4JgniRkXaSU9uOwnA-253" value="被替换" style="rounded=1;whiteSpace=wrap;html=1;fillColor=#76608a;strokeColor=#432D57;fontColor=#ffffff;" vertex="1" parent="1">
          <mxGeometry x="450" y="2510" width="120" height="60" as="geometry" />
        </mxCell>
        <mxCell id="8fh4JgniRkXaSU9uOwnA-254" value="有余额，当次被投放" style="rounded=1;whiteSpace=wrap;html=1;fillColor=#d5e8d4;strokeColor=#82b366;" vertex="1" parent="1">
          <mxGeometry x="600" y="2510" width="120" height="60" as="geometry" />
        </mxCell>
        <mxCell id="8fh4JgniRkXaSU9uOwnA-255" value="无余额，未被投放" style="rounded=1;whiteSpace=wrap;html=1;fillColor=#fad9d5;strokeColor=#ae4132;" vertex="1" parent="1">
          <mxGeometry x="450" y="2590" width="120" height="60" as="geometry" />
        </mxCell>
        <mxCell id="8fh4JgniRkXaSU9uOwnA-256" value="有余额，未被投放" style="rounded=1;whiteSpace=wrap;html=1;fillColor=#fff2cc;strokeColor=#d6b656;" vertex="1" parent="1">
          <mxGeometry x="600" y="2590" width="120" height="60" as="geometry" />
        </mxCell>
        <mxCell id="8fh4JgniRkXaSU9uOwnA-293" value="哪些" style="rounded=1;whiteSpace=wrap;html=1;fillColor=#fff2cc;strokeColor=#d6b656;" vertex="1" parent="1">
          <mxGeometry x="-120" y="3440" width="120" height="60" as="geometry" />
        </mxCell>
        <mxCell id="8fh4JgniRkXaSU9uOwnA-298" value="task1&lt;br&gt;当前预估投放分0.25&lt;br&gt;理想投放分0.28&lt;br&gt;loss=0.03" style="rounded=1;whiteSpace=wrap;html=1;" vertex="1" parent="1">
          <mxGeometry x="537" y="220" width="120" height="60" as="geometry" />
        </mxCell>
        <mxCell id="8fh4JgniRkXaSU9uOwnA-309" value="" style="edgeStyle=orthogonalEdgeStyle;rounded=0;orthogonalLoop=1;jettySize=auto;html=1;" edge="1" parent="1" source="8fh4JgniRkXaSU9uOwnA-299" target="8fh4JgniRkXaSU9uOwnA-308">
          <mxGeometry relative="1" as="geometry" />
        </mxCell>
        <mxCell id="8fh4JgniRkXaSU9uOwnA-299" value="&lt;span style=&quot;color: rgb(0 , 0 , 0) ; font-family: &amp;#34;helvetica&amp;#34; ; font-size: 12px ; font-style: normal ; font-weight: 400 ; letter-spacing: normal ; text-align: center ; text-indent: 0px ; text-transform: none ; word-spacing: 0px ; background-color: rgb(248 , 249 , 250) ; display: inline ; float: none&quot;&gt;task2&lt;/span&gt;&lt;br style=&quot;color: rgb(0 , 0 , 0) ; font-family: &amp;#34;helvetica&amp;#34; ; font-size: 12px ; font-style: normal ; font-weight: 400 ; letter-spacing: normal ; text-align: center ; text-indent: 0px ; text-transform: none ; word-spacing: 0px ; background-color: rgb(248 , 249 , 250)&quot;&gt;&lt;span style=&quot;color: rgb(0 , 0 , 0) ; font-family: &amp;#34;helvetica&amp;#34; ; font-size: 12px ; font-style: normal ; font-weight: 400 ; letter-spacing: normal ; text-align: center ; text-indent: 0px ; text-transform: none ; word-spacing: 0px ; background-color: rgb(248 , 249 , 250) ; display: inline ; float: none&quot;&gt;当前预估投放分0.26&lt;/span&gt;&lt;br style=&quot;color: rgb(0 , 0 , 0) ; font-family: &amp;#34;helvetica&amp;#34; ; font-size: 12px ; font-style: normal ; font-weight: 400 ; letter-spacing: normal ; text-align: center ; text-indent: 0px ; text-transform: none ; word-spacing: 0px ; background-color: rgb(248 , 249 , 250)&quot;&gt;&lt;span style=&quot;color: rgb(0 , 0 , 0) ; font-family: &amp;#34;helvetica&amp;#34; ; font-size: 12px ; font-style: normal ; font-weight: 400 ; letter-spacing: normal ; text-align: center ; text-indent: 0px ; text-transform: none ; word-spacing: 0px ; background-color: rgb(248 , 249 , 250) ; display: inline ; float: none&quot;&gt;理想投放分0.37&lt;br&gt;loss=0.11&lt;br&gt;&lt;/span&gt;" style="rounded=1;whiteSpace=wrap;html=1;" vertex="1" parent="1">
          <mxGeometry x="537" y="280" width="120" height="60" as="geometry" />
        </mxCell>
        <mxCell id="8fh4JgniRkXaSU9uOwnA-300" value="&lt;span&gt;task3&lt;/span&gt;&lt;br&gt;&lt;span&gt;当前预估投放分0.25&lt;/span&gt;&lt;br&gt;&lt;span&gt;理想投放分0.26&lt;br&gt;loss=0.01&lt;br&gt;&lt;/span&gt;" style="rounded=1;whiteSpace=wrap;html=1;" vertex="1" parent="1">
          <mxGeometry x="537" y="340" width="120" height="60" as="geometry" />
        </mxCell>
        <mxCell id="8fh4JgniRkXaSU9uOwnA-302" value="&lt;span&gt;task1&lt;/span&gt;&lt;br&gt;&lt;span&gt;当前预估投放分0.15&lt;/span&gt;&lt;br&gt;&lt;span&gt;理想投放分0.28&lt;br&gt;loss=0.13&lt;br&gt;&lt;/span&gt;" style="rounded=1;whiteSpace=wrap;html=1;" vertex="1" parent="1">
          <mxGeometry x="707" y="620" width="120" height="60" as="geometry" />
        </mxCell>
        <mxCell id="8fh4JgniRkXaSU9uOwnA-321" style="edgeStyle=orthogonalEdgeStyle;rounded=0;orthogonalLoop=1;jettySize=auto;html=1;exitX=1;exitY=0.5;exitDx=0;exitDy=0;entryX=0;entryY=0.5;entryDx=0;entryDy=0;" edge="1" parent="1" source="8fh4JgniRkXaSU9uOwnA-303" target="8fh4JgniRkXaSU9uOwnA-317">
          <mxGeometry relative="1" as="geometry" />
        </mxCell>
        <mxCell id="8fh4JgniRkXaSU9uOwnA-303" value="&lt;span style=&quot;font-family: &amp;#34;helvetica&amp;#34;&quot;&gt;task1&lt;/span&gt;&lt;br style=&quot;font-family: &amp;#34;helvetica&amp;#34;&quot;&gt;&lt;span style=&quot;font-family: &amp;#34;helvetica&amp;#34;&quot;&gt;当前预估投放分0.26&lt;/span&gt;&lt;br style=&quot;font-family: &amp;#34;helvetica&amp;#34;&quot;&gt;&lt;span style=&quot;font-family: &amp;#34;helvetica&amp;#34;&quot;&gt;理想投放分0.37&lt;br&gt;loss=0.11&lt;br&gt;&lt;/span&gt;" style="rounded=1;whiteSpace=wrap;html=1;" vertex="1" parent="1">
          <mxGeometry x="707" y="680" width="120" height="60" as="geometry" />
        </mxCell>
        <mxCell id="8fh4JgniRkXaSU9uOwnA-304" value="&lt;span&gt;task1&lt;/span&gt;&lt;br&gt;&lt;span&gt;当前预估投放分0.05&lt;/span&gt;&lt;br&gt;&lt;span&gt;理想投放分0.17&lt;br&gt;loss=0.12&lt;br&gt;&lt;/span&gt;" style="rounded=1;whiteSpace=wrap;html=1;" vertex="1" parent="1">
          <mxGeometry x="707" y="740" width="120" height="60" as="geometry" />
        </mxCell>
        <mxCell id="8fh4JgniRkXaSU9uOwnA-306" value="例子1" style="shape=process;whiteSpace=wrap;html=1;backgroundOutline=1;" vertex="1" parent="1">
          <mxGeometry x="470" y="220" width="67" height="180" as="geometry" />
        </mxCell>
        <mxCell id="8fh4JgniRkXaSU9uOwnA-307" value="例2" style="shape=process;whiteSpace=wrap;html=1;backgroundOutline=1;" vertex="1" parent="1">
          <mxGeometry x="640" y="620" width="67" height="180" as="geometry" />
        </mxCell>
        <mxCell id="8fh4JgniRkXaSU9uOwnA-314" value="" style="edgeStyle=orthogonalEdgeStyle;rounded=0;orthogonalLoop=1;jettySize=auto;html=1;" edge="1" parent="1" source="8fh4JgniRkXaSU9uOwnA-308" target="8fh4JgniRkXaSU9uOwnA-313">
          <mxGeometry relative="1" as="geometry" />
        </mxCell>
        <mxCell id="8fh4JgniRkXaSU9uOwnA-308" value="选择loss最小的" style="whiteSpace=wrap;html=1;rounded=1;fillColor=#f8cecc;strokeColor=#b85450;" vertex="1" parent="1">
          <mxGeometry x="710" y="280" width="120" height="60" as="geometry" />
        </mxCell>
        <mxCell id="8fh4JgniRkXaSU9uOwnA-310" value="task3&lt;br&gt;当前预估投放分0.25&lt;br&gt;理想投放分0.26&lt;br&gt;loss=0.01&lt;span&gt;&lt;br&gt;&lt;/span&gt;" style="rounded=1;whiteSpace=wrap;html=1;" vertex="1" parent="1">
          <mxGeometry x="1050" y="280" width="120" height="60" as="geometry" />
        </mxCell>
        <mxCell id="8fh4JgniRkXaSU9uOwnA-315" value="" style="edgeStyle=orthogonalEdgeStyle;rounded=0;orthogonalLoop=1;jettySize=auto;html=1;" edge="1" parent="1" source="8fh4JgniRkXaSU9uOwnA-313" target="8fh4JgniRkXaSU9uOwnA-310">
          <mxGeometry relative="1" as="geometry" />
        </mxCell>
        <mxCell id="8fh4JgniRkXaSU9uOwnA-313" value="判定是否loss超过阈值（thres=0.1）" style="whiteSpace=wrap;html=1;rounded=1;fillColor=#f8cecc;strokeColor=#b85450;" vertex="1" parent="1">
          <mxGeometry x="880" y="280" width="120" height="60" as="geometry" />
        </mxCell>
        <mxCell id="8fh4JgniRkXaSU9uOwnA-316" value="" style="edgeStyle=orthogonalEdgeStyle;rounded=0;orthogonalLoop=1;jettySize=auto;html=1;" edge="1" parent="1" source="8fh4JgniRkXaSU9uOwnA-317" target="8fh4JgniRkXaSU9uOwnA-320">
          <mxGeometry relative="1" as="geometry" />
        </mxCell>
        <mxCell id="8fh4JgniRkXaSU9uOwnA-317" value="选择loss最小的" style="whiteSpace=wrap;html=1;rounded=1;fillColor=#f8cecc;strokeColor=#b85450;" vertex="1" parent="1">
          <mxGeometry x="880" y="680" width="120" height="60" as="geometry" />
        </mxCell>
        <mxCell id="8fh4JgniRkXaSU9uOwnA-318" value="&lt;span&gt;本次不投放&lt;br&gt;&lt;/span&gt;" style="rounded=1;whiteSpace=wrap;html=1;" vertex="1" parent="1">
          <mxGeometry x="1220" y="680" width="120" height="60" as="geometry" />
        </mxCell>
        <mxCell id="8fh4JgniRkXaSU9uOwnA-319" value="" style="edgeStyle=orthogonalEdgeStyle;rounded=0;orthogonalLoop=1;jettySize=auto;html=1;" edge="1" parent="1" source="8fh4JgniRkXaSU9uOwnA-320" target="8fh4JgniRkXaSU9uOwnA-318">
          <mxGeometry relative="1" as="geometry" />
        </mxCell>
        <mxCell id="8fh4JgniRkXaSU9uOwnA-320" value="判定是否loss超过阈值（thres=0.1）" style="whiteSpace=wrap;html=1;rounded=1;fillColor=#f8cecc;strokeColor=#b85450;" vertex="1" parent="1">
          <mxGeometry x="1050" y="680" width="120" height="60" as="geometry" />
        </mxCell>
        <mxCell id="8fh4JgniRkXaSU9uOwnA-329" value="" style="edgeStyle=orthogonalEdgeStyle;rounded=0;orthogonalLoop=1;jettySize=auto;html=1;" edge="1" parent="1" source="8fh4JgniRkXaSU9uOwnA-326" target="8fh4JgniRkXaSU9uOwnA-328">
          <mxGeometry relative="1" as="geometry" />
        </mxCell>
        <mxCell id="8fh4JgniRkXaSU9uOwnA-333" style="edgeStyle=none;rounded=0;orthogonalLoop=1;jettySize=auto;html=1;exitX=1;exitY=0.5;exitDx=0;exitDy=0;entryX=0.008;entryY=0.622;entryDx=0;entryDy=0;entryPerimeter=0;" edge="1" parent="1" source="8fh4JgniRkXaSU9uOwnA-326" target="8fh4JgniRkXaSU9uOwnA-331">
          <mxGeometry relative="1" as="geometry" />
        </mxCell>
        <mxCell id="8fh4JgniRkXaSU9uOwnA-326" value="投放时遇到的实际问题" style="rounded=1;whiteSpace=wrap;html=1;" vertex="1" parent="1">
          <mxGeometry x="-550" y="310" width="160" height="60" as="geometry" />
        </mxCell>
        <mxCell id="8fh4JgniRkXaSU9uOwnA-349" style="edgeStyle=none;rounded=0;orthogonalLoop=1;jettySize=auto;html=1;entryX=0;entryY=0.5;entryDx=0;entryDy=0;" edge="1" parent="1" source="8fh4JgniRkXaSU9uOwnA-328" target="8fh4JgniRkXaSU9uOwnA-348">
          <mxGeometry relative="1" as="geometry" />
        </mxCell>
        <mxCell id="8fh4JgniRkXaSU9uOwnA-328" value="投放预算是有限的" style="whiteSpace=wrap;html=1;rounded=1;fillColor=#f8cecc;strokeColor=#b85450;" vertex="1" parent="1">
          <mxGeometry x="-350" y="240" width="120" height="60" as="geometry" />
        </mxCell>
        <mxCell id="8fh4JgniRkXaSU9uOwnA-350" style="edgeStyle=none;rounded=0;orthogonalLoop=1;jettySize=auto;html=1;exitX=1;exitY=0.5;exitDx=0;exitDy=0;" edge="1" parent="1" source="8fh4JgniRkXaSU9uOwnA-331">
          <mxGeometry relative="1" as="geometry">
            <mxPoint x="-160" y="350" as="targetPoint" />
          </mxGeometry>
        </mxCell>
        <mxCell id="8fh4JgniRkXaSU9uOwnA-331" value="流量到来的顺序是随机的" style="whiteSpace=wrap;html=1;rounded=1;fillColor=#f8cecc;strokeColor=#b85450;" vertex="1" parent="1">
          <mxGeometry x="-350" y="380" width="120" height="60" as="geometry" />
        </mxCell>
        <mxCell id="8fh4JgniRkXaSU9uOwnA-341" style="edgeStyle=none;rounded=0;orthogonalLoop=1;jettySize=auto;html=1;entryX=0;entryY=0.5;entryDx=0;entryDy=0;" edge="1" parent="1" source="8fh4JgniRkXaSU9uOwnA-334" target="8fh4JgniRkXaSU9uOwnA-335">
          <mxGeometry relative="1" as="geometry" />
        </mxCell>
        <mxCell id="8fh4JgniRkXaSU9uOwnA-342" style="edgeStyle=none;rounded=0;orthogonalLoop=1;jettySize=auto;html=1;entryX=0;entryY=0.5;entryDx=0;entryDy=0;" edge="1" parent="1" source="8fh4JgniRkXaSU9uOwnA-334" target="8fh4JgniRkXaSU9uOwnA-336">
          <mxGeometry relative="1" as="geometry" />
        </mxCell>
        <mxCell id="8fh4JgniRkXaSU9uOwnA-334" value="投放要做的事情" style="rounded=1;whiteSpace=wrap;html=1;" vertex="1" parent="1">
          <mxGeometry x="-560" y="570" width="160" height="60" as="geometry" />
        </mxCell>
        <mxCell id="8fh4JgniRkXaSU9uOwnA-343" style="edgeStyle=none;rounded=0;orthogonalLoop=1;jettySize=auto;html=1;exitX=1;exitY=0.5;exitDx=0;exitDy=0;entryX=0;entryY=0.5;entryDx=0;entryDy=0;" edge="1" parent="1" source="8fh4JgniRkXaSU9uOwnA-335" target="8fh4JgniRkXaSU9uOwnA-339">
          <mxGeometry relative="1" as="geometry" />
        </mxCell>
        <mxCell id="8fh4JgniRkXaSU9uOwnA-335" value="这次请求要不要出投放" style="whiteSpace=wrap;html=1;rounded=1;" vertex="1" parent="1">
          <mxGeometry x="-350" y="480" width="120" height="60" as="geometry" />
        </mxCell>
        <mxCell id="8fh4JgniRkXaSU9uOwnA-344" style="edgeStyle=none;rounded=0;orthogonalLoop=1;jettySize=auto;html=1;exitX=1;exitY=0.5;exitDx=0;exitDy=0;entryX=0;entryY=0.5;entryDx=0;entryDy=0;" edge="1" parent="1" source="8fh4JgniRkXaSU9uOwnA-336" target="8fh4JgniRkXaSU9uOwnA-340">
          <mxGeometry relative="1" as="geometry" />
        </mxCell>
        <mxCell id="8fh4JgniRkXaSU9uOwnA-336" value="这次请求出哪个任务" style="whiteSpace=wrap;html=1;rounded=1;" vertex="1" parent="1">
          <mxGeometry x="-350" y="650" width="120" height="60" as="geometry" />
        </mxCell>
        <mxCell id="8fh4JgniRkXaSU9uOwnA-339" value="&lt;b&gt;低效流量过滤：&lt;/b&gt;过滤掉投放loss超过阈值的任务" style="whiteSpace=wrap;html=1;rounded=1;fillColor=#f8cecc;strokeColor=#b85450;" vertex="1" parent="1">
          <mxGeometry x="-170" y="480" width="300" height="60" as="geometry" />
        </mxCell>
        <mxCell id="8fh4JgniRkXaSU9uOwnA-340" value="&lt;b&gt;分发目标不同：&lt;/b&gt;选择loss最小的任务投放" style="whiteSpace=wrap;html=1;rounded=1;fillColor=#f8cecc;strokeColor=#b85450;" vertex="1" parent="1">
          <mxGeometry x="-170" y="650" width="300" height="60" as="geometry" />
        </mxCell>
        <mxCell id="8fh4JgniRkXaSU9uOwnA-348" value="投放ctr低" style="rounded=1;whiteSpace=wrap;html=1;fillColor=#f8cecc;strokeColor=#b85450;" vertex="1" parent="1">
          <mxGeometry x="-160" y="320" width="120" height="60" as="geometry" />
        </mxCell>
        <mxCell id="8fh4JgniRkXaSU9uOwnA-352" style="edgeStyle=none;rounded=0;orthogonalLoop=1;jettySize=auto;html=1;exitX=0.5;exitY=0;exitDx=0;exitDy=0;entryX=0.438;entryY=1.022;entryDx=0;entryDy=0;entryPerimeter=0;" edge="1" parent="1" source="8fh4JgniRkXaSU9uOwnA-351" target="8fh4JgniRkXaSU9uOwnA-339">
          <mxGeometry relative="1" as="geometry" />
        </mxCell>
        <mxCell id="8fh4JgniRkXaSU9uOwnA-353" style="edgeStyle=none;rounded=0;orthogonalLoop=1;jettySize=auto;html=1;exitX=0.5;exitY=1;exitDx=0;exitDy=0;entryX=0.5;entryY=0;entryDx=0;entryDy=0;" edge="1" parent="1" source="8fh4JgniRkXaSU9uOwnA-351" target="8fh4JgniRkXaSU9uOwnA-340">
          <mxGeometry relative="1" as="geometry" />
        </mxCell>
        <mxCell id="8fh4JgniRkXaSU9uOwnA-351" value="loss定义=当前投放 - 理想投放" style="whiteSpace=wrap;html=1;rounded=1;fillColor=#f8cecc;strokeColor=#b85450;" vertex="1" parent="1">
          <mxGeometry x="-260" y="560" width="180" height="60" as="geometry" />
        </mxCell>
      </root>
    </mxGraphModel>
  </diagram>
</mxfile>
